<svg width="900" height="392" viewBox="0 0 900 392" class="keymap" xmlns="http://www.w3.org/2000/svg" xmlns:xlink="http://www.w3.org/1999/xlink">
<style>/* inherit to force styles through use tags */
svg path {
    fill: inherit;
}

/* font and background color specifications */
svg.keymap {
    font-family: SFMono-Regular,Consolas,Liberation Mono,Menlo,monospace;
    font-size: 14px;
    font-kerning: normal;
    text-rendering: optimizeLegibility;
    fill: #24292e;
}

/* default key styling */
rect.key {
    fill: #f6f8fa;
}

rect.key, rect.combo {
    stroke: #c9cccf;
    stroke-width: 1;
}

/* default key side styling, only used is draw_key_sides is set */
rect.side {
    filter: brightness(90%);
}

/* color accent for combo boxes */
rect.combo, rect.combo-separate {
    fill: #cdf;
}

/* color accent for held keys */
rect.held, rect.combo.held {
    fill: #fdd;
}

/* color accent for ghost (optional) keys */
rect.ghost, rect.combo.ghost {
    stroke-dasharray: 4, 4;
    stroke-width: 2;
}

text {
    text-anchor: middle;
    dominant-baseline: middle;
}

/* styling for layer labels */
text.label {
    font-weight: bold;
    text-anchor: start;
    stroke: white;
    stroke-width: 4;
    paint-order: stroke;
}

/* styling for optional footer */
text.footer {
    text-anchor: end;
    dominant-baseline: auto;
    stroke: white;
    stroke-width: 4;
    paint-order: stroke;
}

/* styling for combo tap, and key non-tap label text */
text.combo, text.hold, text.shifted, text.left, text.right {
    font-size: 11px;
}

text.hold {
    text-anchor: middle;
    dominant-baseline: auto;
}

text.shifted {
    text-anchor: middle;
    dominant-baseline: hanging;
}

text.left {
    text-anchor: start;
}

text.right {
    text-anchor: end;
}

text.layer-activator {
    text-decoration: underline;
}

/* styling for hold/shifted label text in combo box */
text.combo.hold, text.combo.shifted, text.combo.left, text.combo.right {
    font-size: 8px;
}

/* lighter symbol for transparent keys */
text.trans {
    fill: #7b7e81;
}

/* styling for combo dendrons */
path.combo {
    stroke-width: 1;
    stroke: gray;
    fill: none;
}

/* Start Tabler Icons Cleanup */
/* cannot use height/width with glyphs */
.icon-tabler > path {
    fill: inherit;
    stroke: inherit;
    stroke-width: 2;
}
/* hide tabler's default box */
.icon-tabler > path[stroke="none"][fill="none"] {
    visibility: hidden;
}
/* End Tabler Icons Cleanup */

@media (prefers-color-scheme: dark) {
svg.keymap { fill: #d1d6db; }
rect.key { fill: #3f4750; }
rect.key, rect.combo { stroke: #60666c; }
rect.combo, rect.combo-separate { fill: #1f3d7a; }
rect.held, rect.combo.held { fill: #854747; }
text.label, text.footer { stroke: black; }
text.trans { fill: #7e8184; }
path.combo { stroke: #7f7f7f; }

}
/* General text settings */
svg.keymap {
    font-size: 18px;
    font-weight: bold;
    fill: #24292e;
}

/* Label and Footer */
text.label,
text.footer {
    stroke: none;
}

/* General key settings */
rect.key {
    fill: #484f58;
    stroke: #c1c1c1;
}

/* Pinky */
.keypos-16 rect.key,
.keypos-30 rect.key,
.keypos-43 rect.key,
.keypos-25 rect.key,
.keypos-39 rect.key,
.keypos-40 rect.key,
.keypos-52 rect.key {
    fill: #7daea3;
}

/* Ring */
.keypos-17 rect.key,
.keypos-31 rect.key,
.keypos-44 rect.key,
.keypos-24 rect.key,
.keypos-38 rect.key,
.keypos-51 rect.key {
    fill: #a9b665;
}

/* Middle */
.keypos-18 rect.key,
.keypos-19 rect.key,
.keypos-23 rect.key,
.keypos-32 rect.key,
.keypos-37 rect.key,
.keypos-50 rect.key {
    fill: #d3869b;
}

/* L-Index */
.keypos-33 rect.key,
.keypos-46 rect.key,
.keypos-20 rect.key,
.keypos-34 rect.key,
.keypos-45 rect.key,
.keypos-47 rect.key {
    fill: #d8a657;
}

/* R-Index */
.keypos-21 rect.key,
.keypos-35 rect.key,
.keypos-48 rect.key,
.keypos-22 rect.key,
.keypos-36 rect.key,
.keypos-49 rect.key {
    fill: #89b482;
}
</style>
<g transform="translate(30, 0)" class="layer-Echo">
<text x="0" y="28" class="label" id="Echo">Echo:</text>
<g transform="translate(0, 56)">
<g transform="translate(28, 28)" class="key keypos-0">
<rect rx="6" ry="6" x="-26" y="-26" width="52" height="52" class="key side"/>
<rect rx="4" ry="4" x="-20" y="-24" width="40" height="40" class="key"/>
</g>
<g transform="translate(84, 28)" class="key keypos-1">
<rect rx="6" ry="6" x="-26" y="-26" width="52" height="52" class="key side"/>
<rect rx="4" ry="4" x="-20" y="-24" width="40" height="40" class="key"/>
</g>
<g transform="translate(140, 28)" class="key keypos-2">
<rect rx="6" ry="6" x="-26" y="-26" width="52" height="52" class="key side"/>
<rect rx="4" ry="4" x="-20" y="-24" width="40" height="40" class="key"/>
</g>
<g transform="translate(196, 28)" class="key keypos-3">
<rect rx="6" ry="6" x="-26" y="-26" width="52" height="52" class="key side"/>
<rect rx="4" ry="4" x="-20" y="-24" width="40" height="40" class="key"/>
</g>
<g transform="translate(252, 28)" class="key keypos-4">
<rect rx="6" ry="6" x="-26" y="-26" width="52" height="52" class="key side"/>
<rect rx="4" ry="4" x="-20" y="-24" width="40" height="40" class="key"/>
</g>
<g transform="translate(308, 28)" class="key keypos-5">
<rect rx="6" ry="6" x="-26" y="-26" width="52" height="52" class="key side"/>
<rect rx="4" ry="4" x="-20" y="-24" width="40" height="40" class="key"/>
</g>
<g transform="translate(364, 28)" class="key keypos-6">
<rect rx="6" ry="6" x="-26" y="-26" width="52" height="52" class="key side"/>
<rect rx="4" ry="4" x="-20" y="-24" width="40" height="40" class="key"/>
</g>
<g transform="translate(420, 28)" class="key keypos-7">
<rect rx="6" ry="6" x="-26" y="-26" width="52" height="52" class="key side"/>
<rect rx="4" ry="4" x="-20" y="-24" width="40" height="40" class="key"/>
</g>
<g transform="translate(476, 28)" class="key keypos-8">
<rect rx="6" ry="6" x="-26" y="-26" width="52" height="52" class="key side"/>
<rect rx="4" ry="4" x="-20" y="-24" width="40" height="40" class="key"/>
</g>
<g transform="translate(532, 28)" class="key keypos-9">
<rect rx="6" ry="6" x="-26" y="-26" width="52" height="52" class="key side"/>
<rect rx="4" ry="4" x="-20" y="-24" width="40" height="40" class="key"/>
</g>
<g transform="translate(588, 28)" class="key keypos-10">
<rect rx="6" ry="6" x="-26" y="-26" width="52" height="52" class="key side"/>
<rect rx="4" ry="4" x="-20" y="-24" width="40" height="40" class="key"/>
</g>
<g transform="translate(644, 28)" class="key keypos-11">
<rect rx="6" ry="6" x="-26" y="-26" width="52" height="52" class="key side"/>
<rect rx="4" ry="4" x="-20" y="-24" width="40" height="40" class="key"/>
</g>
<g transform="translate(700, 28)" class="key keypos-12">
<rect rx="6" ry="6" x="-26" y="-26" width="52" height="52" class="key side"/>
<rect rx="4" ry="4" x="-20" y="-24" width="40" height="40" class="key"/>
</g>
<g transform="translate(756, 28)" class="key keypos-13">
<rect rx="6" ry="6" x="-26" y="-26" width="52" height="52" class="key side"/>
<rect rx="4" ry="4" x="-20" y="-24" width="40" height="40" class="key"/>
</g>
<g transform="translate(812, 28)" class="key keypos-14">
<rect rx="6" ry="6" x="-26" y="-26" width="52" height="52" class="key side"/>
<rect rx="4" ry="4" x="-20" y="-24" width="40" height="40" class="key"/>
</g>
<g transform="translate(42, 84)" class="key keypos-15">
<rect rx="6" ry="6" x="-40" y="-26" width="80" height="52" class="key side"/>
<rect rx="4" ry="4" x="-34" y="-24" width="68" height="40" class="key"/>
</g>
<g transform="translate(112, 84)" class="key keypos-16">
<rect rx="6" ry="6" x="-26" y="-26" width="52" height="52" class="key side"/>
<rect rx="4" ry="4" x="-20" y="-24" width="40" height="40" class="key"/>
<text x="0" y="-4" class="key tap">F</text>
</g>
<g transform="translate(168, 84)" class="key keypos-17">
<rect rx="6" ry="6" x="-26" y="-26" width="52" height="52" class="key side"/>
<rect rx="4" ry="4" x="-20" y="-24" width="40" height="40" class="key"/>
<text x="0" y="-4" class="key tap">D</text>
</g>
<g transform="translate(224, 84)" class="key keypos-18">
<rect rx="6" ry="6" x="-26" y="-26" width="52" height="52" class="key side"/>
<rect rx="4" ry="4" x="-20" y="-24" width="40" height="40" class="key"/>
<text x="0" y="-4" class="key tap">L</text>
</g>
<g transform="translate(280, 84)" class="key keypos-19">
<rect rx="6" ry="6" x="-26" y="-26" width="52" height="52" class="key side"/>
<rect rx="4" ry="4" x="-20" y="-24" width="40" height="40" class="key"/>
<text x="0" y="-4" class="key tap">M</text>
</g>
<g transform="translate(336, 84)" class="key keypos-20">
<rect rx="6" ry="6" x="-26" y="-26" width="52" height="52" class="key side"/>
<rect rx="4" ry="4" x="-20" y="-24" width="40" height="40" class="key"/>
<text x="0" y="-4" class="key tap">P</text>
</g>
<g transform="translate(392, 84)" class="key keypos-21">
<rect rx="6" ry="6" x="-26" y="-26" width="52" height="52" class="key side"/>
<rect rx="4" ry="4" x="-20" y="-24" width="40" height="40" class="key"/>
<text x="0" y="-4" class="key tap">X</text>
</g>
<g transform="translate(448, 84)" class="key keypos-22">
<rect rx="6" ry="6" x="-26" y="-26" width="52" height="52" class="key side"/>
<rect rx="4" ry="4" x="-20" y="-24" width="40" height="40" class="key"/>
<text x="0" y="-4" class="key tap">J</text>
</g>
<g transform="translate(504, 84)" class="key keypos-23">
<rect rx="6" ry="6" x="-26" y="-26" width="52" height="52" class="key side"/>
<rect rx="4" ry="4" x="-20" y="-24" width="40" height="40" class="key"/>
<text x="0" y="-4" class="key tap">O</text>
</g>
<g transform="translate(560, 84)" class="key keypos-24">
<rect rx="6" ry="6" x="-26" y="-26" width="52" height="52" class="key side"/>
<rect rx="4" ry="4" x="-20" y="-24" width="40" height="40" class="key"/>
<text x="0" y="-4" class="key tap">U</text>
</g>
<g transform="translate(616, 84)" class="key keypos-25">
<rect rx="6" ry="6" x="-26" y="-26" width="52" height="52" class="key side"/>
<rect rx="4" ry="4" x="-20" y="-24" width="40" height="40" class="key"/>
<text x="0" y="-4" class="key tap">Q</text>
</g>
<g transform="translate(672, 84)" class="key keypos-26">
<rect rx="6" ry="6" x="-26" y="-26" width="52" height="52" class="key side"/>
<rect rx="4" ry="4" x="-20" y="-24" width="40" height="40" class="key"/>
</g>
<g transform="translate(728, 84)" class="key keypos-27">
<rect rx="6" ry="6" x="-26" y="-26" width="52" height="52" class="key side"/>
<rect rx="4" ry="4" x="-20" y="-24" width="40" height="40" class="key"/>
</g>
<g transform="translate(798, 84)" class="key keypos-28">
<rect rx="6" ry="6" x="-40" y="-26" width="80" height="52" class="key side"/>
<rect rx="4" ry="4" x="-34" y="-24" width="68" height="40" class="key"/>
</g>
<g transform="translate(49, 140)" class="key keypos-29">
<rect rx="6" ry="6" x="-47" y="-26" width="94" height="52" class="key side"/>
<rect rx="4" ry="4" x="-41" y="-24" width="82" height="40" class="key"/>
</g>
<g transform="translate(126, 140)" class="key keypos-30">
<rect rx="6" ry="6" x="-26" y="-26" width="52" height="52" class="key side"/>
<rect rx="4" ry="4" x="-20" y="-24" width="40" height="40" class="key"/>
<text x="0" y="-4" class="key tap">S</text>
</g>
<g transform="translate(182, 140)" class="key keypos-31">
<rect rx="6" ry="6" x="-26" y="-26" width="52" height="52" class="key side"/>
<rect rx="4" ry="4" x="-20" y="-24" width="40" height="40" class="key"/>
<text x="0" y="-4" class="key tap">T</text>
</g>
<g transform="translate(238, 140)" class="key keypos-32">
<rect rx="6" ry="6" x="-26" y="-26" width="52" height="52" class="key side"/>
<rect rx="4" ry="4" x="-20" y="-24" width="40" height="40" class="key"/>
<text x="0" y="-4" class="key tap">R</text>
</g>
<g transform="translate(294, 140)" class="key keypos-33">
<rect rx="6" ry="6" x="-26" y="-26" width="52" height="52" class="key side"/>
<rect rx="4" ry="4" x="-20" y="-24" width="40" height="40" class="key"/>
<text x="0" y="-4" class="key tap">Y</text>
</g>
<g transform="translate(350, 140)" class="key keypos-34">
<rect rx="6" ry="6" x="-26" y="-26" width="52" height="52" class="key side"/>
<rect rx="4" ry="4" x="-20" y="-24" width="40" height="40" class="key"/>
<text x="0" y="-4" class="key tap">C</text>
</g>
<g transform="translate(406, 140)" class="key keypos-35">
<rect rx="6" ry="6" x="-26" y="-26" width="52" height="52" class="key side"/>
<rect rx="4" ry="4" x="-20" y="-24" width="40" height="40" class="key"/>
<text x="0" y="-4" class="key tap">B</text>
</g>
<g transform="translate(462, 140)" class="key keypos-36">
<rect rx="6" ry="6" x="-26" y="-26" width="52" height="52" class="key side"/>
<rect rx="4" ry="4" x="-20" y="-24" width="40" height="40" class="key"/>
<text x="0" y="-4" class="key tap">N</text>
</g>
<g transform="translate(518, 140)" class="key keypos-37">
<rect rx="6" ry="6" x="-26" y="-26" width="52" height="52" class="key side"/>
<rect rx="4" ry="4" x="-20" y="-24" width="40" height="40" class="key"/>
<text x="0" y="-4" class="key tap">A</text>
</g>
<g transform="translate(574, 140)" class="key keypos-38">
<rect rx="6" ry="6" x="-26" y="-26" width="52" height="52" class="key side"/>
<rect rx="4" ry="4" x="-20" y="-24" width="40" height="40" class="key"/>
<text x="0" y="-4" class="key tap">E</text>
</g>
<g transform="translate(630, 140)" class="key keypos-39">
<rect rx="6" ry="6" x="-26" y="-26" width="52" height="52" class="key side"/>
<rect rx="4" ry="4" x="-20" y="-24" width="40" height="40" class="key"/>
<text x="0" y="-4" class="key tap">I</text>
</g>
<g transform="translate(686, 140)" class="key keypos-40">
<rect rx="6" ry="6" x="-26" y="-26" width="52" height="52" class="key side"/>
<rect rx="4" ry="4" x="-20" y="-24" width="40" height="40" class="key"/>
<text x="0" y="-4" class="key tap">,</text>
</g>
<g transform="translate(777, 140)" class="key keypos-41">
<rect rx="6" ry="6" x="-61" y="-26" width="122" height="52" class="key side"/>
<rect rx="4" ry="4" x="-55" y="-24" width="110" height="40" class="key"/>
</g>
<g transform="translate(63, 196)" class="key keypos-42">
<rect rx="6" ry="6" x="-61" y="-26" width="122" height="52" class="key side"/>
<rect rx="4" ry="4" x="-55" y="-24" width="110" height="40" class="key"/>
</g>
<g transform="translate(154, 196)" class="key keypos-43">
<rect rx="6" ry="6" x="-26" y="-26" width="52" height="52" class="key side"/>
<rect rx="4" ry="4" x="-20" y="-24" width="40" height="40" class="key"/>
<text x="0" y="-4" class="key tap">Z</text>
</g>
<g transform="translate(210, 196)" class="key keypos-44">
<rect rx="6" ry="6" x="-26" y="-26" width="52" height="52" class="key side"/>
<rect rx="4" ry="4" x="-20" y="-24" width="40" height="40" class="key"/>
<text x="0" y="-4" class="key tap">K</text>
</g>
<g transform="translate(266, 196)" class="key keypos-45">
<rect rx="6" ry="6" x="-26" y="-26" width="52" height="52" class="key side"/>
<rect rx="4" ry="4" x="-20" y="-24" width="40" height="40" class="key"/>
<text x="0" y="-4" class="key tap">W</text>
</g>
<g transform="translate(322, 196)" class="key keypos-46">
<rect rx="6" ry="6" x="-26" y="-26" width="52" height="52" class="key side"/>
<rect rx="4" ry="4" x="-20" y="-24" width="40" height="40" class="key"/>
<text x="0" y="-4" class="key tap">G</text>
</g>
<g transform="translate(378, 196)" class="key keypos-47">
<rect rx="6" ry="6" x="-26" y="-26" width="52" height="52" class="key side"/>
<rect rx="4" ry="4" x="-20" y="-24" width="40" height="40" class="key"/>
<text x="0" y="-4" class="key tap">V</text>
</g>
<g transform="translate(434, 196)" class="key keypos-48">
<rect rx="6" ry="6" x="-26" y="-26" width="52" height="52" class="key side"/>
<rect rx="4" ry="4" x="-20" y="-24" width="40" height="40" class="key"/>
<text x="0" y="-4" class="key tap">◈</text>
</g>
<g transform="translate(490, 196)" class="key keypos-49">
<rect rx="6" ry="6" x="-26" y="-26" width="52" height="52" class="key side"/>
<rect rx="4" ry="4" x="-20" y="-24" width="40" height="40" class="key"/>
<text x="0" y="-4" class="key tap">H</text>
</g>
<g transform="translate(546, 196)" class="key keypos-50">
<rect rx="6" ry="6" x="-26" y="-26" width="52" height="52" class="key side"/>
<rect rx="4" ry="4" x="-20" y="-24" width="40" height="40" class="key"/>
<text x="0" y="-4" class="key tap">&#x27;</text>
</g>
<g transform="translate(602, 196)" class="key keypos-51">
<rect rx="6" ry="6" x="-26" y="-26" width="52" height="52" class="key side"/>
<rect rx="4" ry="4" x="-20" y="-24" width="40" height="40" class="key"/>
<text x="0" y="-4" class="key tap">;</text>
</g>
<g transform="translate(658, 196)" class="key keypos-52">
<rect rx="6" ry="6" x="-26" y="-26" width="52" height="52" class="key side"/>
<rect rx="4" ry="4" x="-20" y="-24" width="40" height="40" class="key"/>
<text x="0" y="-4" class="key tap">.</text>
</g>
<g transform="translate(735, 196)" class="key keypos-53">
<rect rx="6" ry="6" x="-47" y="-26" width="94" height="52" class="key side"/>
<rect rx="4" ry="4" x="-41" y="-24" width="82" height="40" class="key"/>
</g>
<g transform="translate(812, 196)" class="key keypos-54">
<rect rx="6" ry="6" x="-26" y="-26" width="52" height="52" class="key side"/>
<rect rx="4" ry="4" x="-20" y="-24" width="40" height="40" class="key"/>
</g>
<g transform="translate(112, 252)" class="key keypos-55">
<rect rx="6" ry="6" x="-26" y="-26" width="52" height="52" class="key side"/>
<rect rx="4" ry="4" x="-20" y="-24" width="40" height="40" class="key"/>
</g>
<g transform="translate(182, 252)" class="key keypos-56">
<rect rx="6" ry="6" x="-40" y="-26" width="80" height="52" class="key side"/>
<rect rx="4" ry="4" x="-34" y="-24" width="68" height="40" class="key"/>
</g>
<g transform="translate(392, 252)" class="key keypos-57">
<rect rx="6" ry="6" x="-166" y="-26" width="332" height="52" class="key side"/>
<rect rx="4" ry="4" x="-160" y="-24" width="320" height="40" class="key"/>
</g>
<g transform="translate(602, 252)" class="key keypos-58">
<rect rx="6" ry="6" x="-40" y="-26" width="80" height="52" class="key side"/>
<rect rx="4" ry="4" x="-34" y="-24" width="68" height="40" class="key"/>
</g>
<g transform="translate(672, 252)" class="key keypos-59">
<rect rx="6" ry="6" x="-26" y="-26" width="52" height="52" class="key side"/>
<rect rx="4" ry="4" x="-20" y="-24" width="40" height="40" class="key"/>
</g>
</g>
</g>
<text x="870.0" y="364.0" class="footer">Created with <a href="https://github.com/caksoylar/keymap-drawer">keymap-drawer</a></text></svg>
